<svg xmlns:svg="http://www.w3.org/2000/svg" xmlns="http://www.w3.org/2000/svg" width="128" height="128" version="1"><path d="M44.7 4.2C36 4.2 28.9 11.3 28.9 20c0 5.8 3.2 10.8 7.9 13.5-1.7 8.7 2.1 19 7.3 24.6-1 0.7-2 1.4-2.9 2.1-2.5-1.7-5.6-2.7-8.8-2.7-8.7 0-15.8 7.1-15.8 15.8 0 7.6 5.5 14 12.7 15.5 0.2 1.2 0.4 2.4 0.7 3.5-6.2 7.7-3.3 18.2 2.1 24.3 7.4 8.2 22.2 11.1 27.7 0.7 2.8 0.4 5.9 0.3 8.9 0.1 5.9 10.6 21 7.2 27.8-0.4 5.4-6.7 8-16.4 3-23.2 0.6-1.8 1-3.7 1.2-5.7 8.1-0.6 14.6-7.5 14.6-15.7 0-8.7-7.1-15.8-15.8-15.8-4 0-7.6 1.5-10.4 4-1-0.9-2.1-1.7-3.3-2.4 6-8.2 8.7-14.9 7.4-23.7 5.2-2.6 8.8-7.8 8.8-14 0-8.7-7.1-15.8-15.8-15.8-5.2 0-9.8 2.6-12.7 6.6-2.7-0.8-5.5-1.4-8.5-1.4-2.6 0-5 0.4-7.4 1.1C54.6 6.9 50 4.2 44.7 4.2Zm0 5.1c5.5 0.7 8.2 3.5 10.4 7.7 3.2-1.2 6.8-2 9.7-2 4.1 0.1 7.1 1.1 10.7 2.5C77.6 13.1 82.1 9.9 86 9.8c5.9 0 10.7 4.7 10.7 10.7-1.2 6.6-4.1 9-9.4 10.8 0.5 2.4 1 5 1 7.2 0 13-10.5 23.5-23.5 23.5-6.2 0-11.8-2.4-16-6.3l-0.1-0.2-0.1 0C44.1 51.2 41.3 45.2 41.3 38.5 41.4 35.6 41.9 33.4 42.5 30.7 37.7 28.9 34.1 24.1 34 20 34 14.1 38.8 9.3 44.7 9.3Zm9.4 14.9c-2.8 0-5 2.3-5 5 0 2.8 2.3 5 5 5 2.8 0 5-2.3 5-5 0-2.8-2.3-5-5-5zm22.2 0.3c-2.8 0-5 2.3-5 5 0 2.8 2.3 5 5 5 2.8 0 5-2.3 5-5 0-2.8-2.3-5-5-5zm-11.6 7.9c-8 0-14.4 6.5-14.4 14.5 0 8 6.5 14.4 14.4 14.4 8 0 14.4-6.5 14.4-14.4 0-8-6.5-14.5-14.4-14.5zm0 2.4c6.7 0 12 5.4 12 12 0 6.7-5.4 12-12 12-6.7 0-12-5.4-12-12 0-6.7 5.4-12 12-12zM64.9 36c-2.8 0-5 2.3-5 5 0 2.8 2.3 5 5 5 2.8 0 5-2.3 5-5 0-2.8-2.3-5-5-5zm-1.5 12.3c-1.2 2.9-3.9 2.8-5.1 0.8-1-1.8-3.7-0.2-2.6 1.5 2.5 3.5 6.7 4.1 9.2 1.1 2.9 2.9 7 2.5 9.3-0.7 1.2-1.6-1.2-3.3-2.5-1.8-2.3 2.8-4.3 1-5.6-1.2-0.8-1.4-2.3-1-2.8 0.2zM48.1 61.7c4.7 3.4 10.5 5.4 16.7 5.4 6.2 0 12-2 16.7-5.4 1.4 0.8 2.8 1.8 4.1 2.8-1.3 2.3-2.1 5-2.1 7.9 0 7.4 5.1 13.6 11.9 15.3-0.1 0.8-0.2 1.7-0.4 2.5-8.2-3.5-17.1 0.6-22.2 6.2-3.5 3.9-5.4 8.6-5.8 13.1-0.1 1 0 2 0.1 2.9-2.1 0.1-4.1 0.1-6 0 0.1-1.1 0.2-2.1 0.1-3.2-0.3-4.5-2-9.5-5.8-13.1-6.5-6.3-12.9-9.4-20.8-6.3 0-0.1-0.2-0.6-0.2-0.7 7.7-1 13.7-7.7 13.7-15.6 0-3.6-1.2-6.9-3.2-9.5 1-0.8 2.1-1.5 3.2-2.1zm51.2 0c5.9 0 10.7 4.8 10.7 10.7 0 5.9-4.8 10.7-10.7 10.7-5.9 0-10.7-4.8-10.7-10.7 0-5.9 4.8-10.7 10.7-10.7zm-67 0.9c6.1 0.2 10.6 5 10.7 10.7 0 5.9-4.8 10.7-10.7 10.7-5.9 0-10.7-4.8-10.7-10.7 0-5.9 4.8-10.7 10.7-10.7zM51.6 99.4C64.3 113.4 48.4 126.7 35.8 113.3 31.8 108.3 29.2 99.9 34.1 95.4 39.4 91.3 47.2 93.9 51.6 99.4Zm42.6-3.7c5 5.4 2.1 13.4-1.7 17.9-4.4 4.7-12.4 8.3-17.5 4-5-5.4-2.1-13.4 1.7-17.9 4.4-4.7 12.2-8.2 17.5-4z" style="baseline-shift:baseline;block-progression:tb;color-interpolation-filters:linearRGB;color-interpolation:sRGB;color-rendering:auto;direction:ltr;fill:#999;font-family:sans-serif;font-size:medium;image-rendering:auto;isolation:auto;letter-spacing:normal;line-height:normal;mix-blend-mode:normal;shape-rendering:auto;solid-color:#000000;solid-opacity:1;text-align:start;text-anchor:start;text-decoration-color:#000000;text-decoration-line:none;text-decoration-style:solid;text-decoration:none;text-indent:0;text-rendering:auto;text-transform:none;white-space:normal;word-spacing:normal;writing-mode:lr-tb"/></svg>