<svg xmlns:svg="http://www.w3.org/2000/svg" xmlns="http://www.w3.org/2000/svg" version="1" width="512" height="512" viewBox="0 0 512 512"><style>.s0{fill:#999;}</style><path d="M473 7c-9-9-25-9-34 0l-101 101c-26-8-53-12-82-12-112 0-208 65-256 160 21 41 50 77 87 104l-79 79c-9 9-9 25 0 34 5 5 11 7 17 7s12-2 17-7l432-432c9-9 9-25 0-34zM208 160c21 0 39 14 45 33l-61 61c-19-6-33-24-33-45 0-27 21-48 48-48zM55 256c19-30 45-56 75-75 2-1 4-2 6-4-5 14-8 28-8 44 0 27 9 53 23 74l-30 30c-26-18-49-42-66-69zM384 221c0-14-2-27-6-39l-161 161c12 4 25 6 39 6 71 0 128-57 128-128zM415 145l-35 35c1 0 1 1 2 1 30 19 56 45 75 75-19 30-45 56-75 75-38 24-81 37-126 37-19 0-38-2-57-7l-38 38c30 11 62 17 95 17 112 0 208-65 256-160-23-45-56-83-97-111z" fill="#999"/></svg>